<?xml version="1.0" encoding="UTF-8"?>
<svg xmlns="http://www.w3.org/2000/svg" xmlns:xlink="http://www.w3.org/1999/xlink" width="200px" height="48px" viewBox="0 0 201 48" version="1.1">
<g id="surface1">
<path style=" stroke:none;fill-rule:nonzero;fill:rgb(13.72549%,12.156863%,12.54902%);fill-opacity:1;" d="M 35.589844 15.105469 C 39.40625 15.105469 42.585938 16.492188 45.105469 19.246094 C 47.421875 21.769531 48.601562 24.773438 48.601562 28.253906 C 48.625 36.851562 48.625 41.199219 48.601562 41.335938 C 47.148438 41.335938 46.035156 41.335938 45.21875 41.335938 C 45.21875 41.222656 45.21875 39.355469 45.21875 35.691406 C 43.449219 38.992188 40.246094 40.835938 35.589844 41.222656 C 31.773438 41.222656 28.683594 39.925781 26.277344 37.332031 C 23.871094 34.738281 22.667969 31.710938 22.667969 28.253906 C 22.667969 24.796875 23.800781 21.816406 26.097656 19.269531 C 28.59375 16.492188 31.773438 15.105469 35.589844 15.105469 Z M 35.589844 18.222656 C 32.953125 18.222656 30.683594 19.199219 28.777344 21.179688 C 26.867188 23.136719 25.914062 25.523438 25.914062 28.300781 C 25.914062 30.097656 26.390625 31.824219 27.367188 33.484375 C 28.34375 35.148438 30.003906 36.558594 32.320312 37.695312 C 38.15625 38.992188 42.289062 36.351562 44.742188 29.734375 C 44.878906 27.617188 44.652344 25.59375 44.0625 23.660156 C 43.628906 22.773438 43.0625 21.953125 42.3125 21.15625 C 40.472656 19.222656 38.222656 18.222656 35.589844 18.222656 Z M 35.589844 18.222656 "/>
<path style=" stroke:none;fill-rule:nonzero;fill:rgb(13.72549%,12.156863%,12.54902%);fill-opacity:1;" d="M 66.570312 18.449219 L 64.523438 20.585938 C 62.796875 18.925781 61.140625 18.085938 59.527344 18.085938 C 58.484375 18.085938 57.597656 18.425781 56.847656 19.109375 C 56.097656 19.792969 55.734375 20.585938 55.734375 21.542969 C 55.734375 22.339844 56.054688 23.089844 56.667969 23.816406 C 57.28125 24.589844 58.550781 25.480469 60.503906 26.480469 C 62.890625 27.707031 64.5 28.890625 65.34375 30.050781 C 66.183594 31.210938 66.589844 32.53125 66.589844 33.988281 C 66.589844 36.011719 65.886719 37.742188 64.457031 39.152344 C 63.027344 40.5625 61.253906 41.265625 59.097656 41.265625 C 57.664062 41.265625 56.300781 40.96875 54.984375 40.355469 C 53.667969 39.742188 52.601562 38.878906 51.761719 37.785156 L 53.78125 35.488281 C 55.417969 37.332031 57.144531 38.261719 58.960938 38.261719 C 60.230469 38.261719 61.320312 37.855469 62.207031 37.035156 C 63.117188 36.214844 63.546875 35.238281 63.546875 34.144531 C 63.546875 33.214844 63.253906 32.417969 62.660156 31.6875 C 62.070312 30.984375 60.730469 30.097656 58.640625 29.003906 C 56.394531 27.867188 54.871094 26.730469 54.078125 25.570312 C 53.257812 24.453125 52.851562 23.160156 52.851562 21.703125 C 52.851562 19.8125 53.488281 18.246094 54.78125 16.992188 C 56.074219 15.742188 57.6875 15.128906 59.640625 15.128906 C 61.957031 15.105469 64.25 16.21875 66.570312 18.449219 Z M 66.570312 18.449219 "/>
<path style=" stroke:none;fill-rule:nonzero;fill:rgb(13.72549%,12.156863%,12.54902%);fill-opacity:1;" d="M 71.472656 6.710938 L 74.699219 6.710938 L 74.699219 26.367188 L 86.191406 16.332031 L 90.894531 16.332031 L 80.492188 25.796875 L 91.6875 41.222656 L 87.167969 41.222656 L 77.378906 27.84375 L 74.699219 30.050781 L 74.699219 41.242188 L 71.472656 41.242188 Z M 71.472656 6.710938 "/>
<path style=" stroke:none;fill-rule:nonzero;fill:rgb(13.72549%,12.156863%,12.54902%);fill-opacity:1;" d="M 94.777344 41.175781 L 94.777344 7.53125 L 95.503906 7.53125 L 117.828125 33.28125 L 117.828125 7.53125 L 121.144531 7.53125 L 121.144531 41.175781 L 120.371094 41.175781 L 98.273438 15.742188 L 98.273438 41.175781 Z M 94.777344 41.175781 "/>
<path style=" stroke:none;fill-rule:nonzero;fill:rgb(13.72549%,12.156863%,12.54902%);fill-opacity:1;" d="M 148.988281 32.371094 L 151.667969 33.804688 C 150.808594 35.535156 149.808594 36.945312 148.625 37.992188 C 147.46875 39.058594 146.152344 39.855469 144.699219 40.402344 C 143.242188 40.949219 141.609375 41.222656 139.792969 41.222656 C 135.75 41.222656 132.59375 39.902344 130.296875 37.238281 C 128.027344 34.578125 126.867188 31.597656 126.867188 28.253906 C 126.867188 25.09375 127.84375 22.269531 129.777344 19.8125 C 132.226562 16.675781 135.5 15.105469 139.632812 15.105469 C 143.835938 15.105469 147.21875 16.71875 149.761719 19.929688 C 151.554688 22.203125 152.464844 25.023438 152.488281 28.414062 L 130.183594 28.414062 C 130.253906 31.324219 131.160156 33.691406 132.957031 35.554688 C 134.726562 37.398438 136.929688 38.332031 139.542969 38.332031 C 140.8125 38.332031 142.039062 38.105469 143.242188 37.671875 C 144.449219 37.21875 145.445312 36.648438 146.289062 35.921875 C 147.105469 35.167969 148.011719 34.007812 148.988281 32.371094 Z M 148.988281 25.683594 C 148.558594 23.976562 147.945312 22.613281 147.128906 21.589844 C 146.308594 20.566406 145.242188 19.746094 143.878906 19.109375 C 142.539062 18.472656 141.132812 18.175781 139.65625 18.175781 C 137.226562 18.175781 135.136719 18.972656 133.386719 20.542969 C 132.113281 21.703125 131.160156 23.410156 130.503906 25.683594 Z M 148.988281 25.683594 "/>
<path style=" stroke:none;fill-rule:nonzero;fill:rgb(13.72549%,12.156863%,12.54902%);fill-opacity:1;" d="M 23.371094 18.472656 L 23.371094 18.5625 C 22.644531 19.449219 22.03125 20.453125 21.53125 21.496094 L 11.21875 21.496094 L 11.21875 31.894531 C 11.128906 34.488281 12.015625 36.488281 13.855469 37.898438 C 15.375 38.605469 16.898438 38.535156 18.464844 37.695312 C 18.875 38.832031 19.191406 39.71875 19.464844 40.355469 C 17.804688 40.992188 16.328125 41.289062 15.035156 41.242188 C 12.582031 41.105469 10.652344 39.832031 9.242188 37.421875 C 8.378906 35.898438 7.972656 34.238281 7.996094 32.441406 L 7.996094 6.597656 L 11.21875 6.597656 L 11.21875 18.472656 Z M 23.371094 18.472656 "/>
<path style=" stroke:none;fill-rule:nonzero;fill:rgb(20%,0%,93.72549%);fill-opacity:1;" d="M 187.578125 30.4375 C 189.078125 30.4375 190.347656 30.984375 191.414062 32.054688 C 192.484375 33.121094 193.027344 34.417969 193.027344 35.941406 C 193.027344 37.445312 192.484375 38.71875 191.414062 39.789062 C 190.347656 40.855469 189.054688 41.402344 187.578125 41.402344 C 186.054688 41.402344 184.761719 40.855469 183.714844 39.789062 C 182.671875 38.71875 182.125 37.445312 182.125 35.941406 C 182.125 34.417969 182.648438 33.121094 183.714844 32.054688 C 184.761719 30.984375 186.054688 30.4375 187.578125 30.4375 Z M 187.578125 30.4375 "/>
<path style=" stroke:none;fill-rule:nonzero;fill:rgb(13.72549%,12.156863%,12.54902%);fill-opacity:1;" d="M 170.632812 30.050781 L 168.726562 32.667969 L 174.859375 41.199219 L 178.675781 41.199219 Z M 160.777344 16.332031 L 156.960938 16.332031 L 164.046875 26.183594 L 165.933594 23.566406 Z M 160.777344 16.332031 "/>
<path style=" stroke:none;fill-rule:nonzero;fill:rgb(13.72549%,12.156863%,12.54902%);fill-opacity:1;" d="M 177.742188 16.332031 L 160.617188 40.015625 L 159.753906 41.222656 L 155.984375 41.222656 L 163.207031 31.234375 L 165.457031 28.117188 L 167.339844 25.523438 L 171.792969 19.359375 L 173.972656 16.332031 Z M 177.742188 16.332031 "/>
</g>
</svg>
